<?xml version="1.0" encoding="UTF-8" standalone="no"?>
<!-- Created with Inkscape (http://www.inkscape.org/) -->

<svg
   xmlns:dc="http://purl.org/dc/elements/1.1/"
   xmlns:cc="http://creativecommons.org/ns#"
   xmlns:rdf="http://www.w3.org/1999/02/22-rdf-syntax-ns#"
   xmlns:svg="http://www.w3.org/2000/svg"
   xmlns="http://www.w3.org/2000/svg"
   xmlns:sodipodi="http://sodipodi.sourceforge.net/DTD/sodipodi-0.dtd"
   xmlns:inkscape="http://www.inkscape.org/namespaces/inkscape"
   width="210mm"
   height="297mm"
   viewBox="0 0 744.09448819 1052.3622047"
   id="svg2"
   version="1.1"
   inkscape:version="0.91 r13725"
   sodipodi:docname="media luna musulmana.svg">
  <defs
     id="defs4" />
  <sodipodi:namedview
     id="base"
     pagecolor="#ffffff"
     bordercolor="#666666"
     borderopacity="1.0"
     inkscape:pageopacity="0.0"
     inkscape:pageshadow="2"
     inkscape:zoom="0.35"
     inkscape:cx="22.142857"
     inkscape:cy="520"
     inkscape:document-units="px"
     inkscape:current-layer="layer1"
     showgrid="false"
     inkscape:window-width="1366"
     inkscape:window-height="705"
     inkscape:window-x="-8"
     inkscape:window-y="-8"
     inkscape:window-maximized="1" />
  <metadata
     id="metadata7">
    <rdf:RDF>
      <cc:Work
         rdf:about="">
        <dc:format>image/svg+xml</dc:format>
        <dc:type
           rdf:resource="http://purl.org/dc/dcmitype/StillImage" />
        <dc:title></dc:title>
      </cc:Work>
    </rdf:RDF>
  </metadata>
  <g
     inkscape:label="Layer 1"
     inkscape:groupmode="layer"
     id="layer1">
    <path
       style="opacity:1;fill:#ff0000;fill-opacity:1;fill-rule:evenodd;stroke:#dbdbdb;stroke-width:0;stroke-miterlimit:4;stroke-dasharray:none;stroke-opacity:1"
       d="m 330.04688,226.18164 a 300,300 0 0 0 -300.000005,300 300,300 0 0 0 300.000005,300 300,300 0 0 0 191.02929,-68.99609 250,250 0 0 1 -111.02929,26.13867 250,250 0 0 1 -250,-250 250,250 0 0 1 250,-250 250,250 0 0 1 149.21093,49.78516 300,300 0 0 0 -229.21093,-106.92774 z"
       id="path3351"
       inkscape:connector-curvature="0" />
    <path
       sodipodi:type="star"
       style="opacity:1;fill:#ff0000;fill-opacity:1;fill-rule:evenodd;stroke:#dbdbdb;stroke-width:0;stroke-miterlimit:4;stroke-dasharray:none;stroke-opacity:1"
       id="path3358"
       sodipodi:sides="5"
       sodipodi:cx="651.42859"
       sodipodi:cy="543.79077"
       sodipodi:r1="61.819912"
       sodipodi:r2="150.78027"
       sodipodi:arg1="0.26179939"
       sodipodi:arg2="0.89011792"
       inkscape:flatsided="false"
       inkscape:rounded="0"
       inkscape:randomized="0"
       d="m 711.14204,559.79094 35.17565,101.17811 -91.6537,-55.44309 -85.35622,64.71979 24.40696,-104.3007 -87.9287,-61.17909 106.73803,-9.01828 31.0133,-102.53054 41.56077,98.72709 107.09597,-2.18828 z"
       inkscape:transform-center-x="-0.39317349"
       inkscape:transform-center-y="30.094373"
       transform="matrix(0.87272306,0.4882156,-0.4882156,0.87272306,294.00314,-249.51427)" />
  </g>
</svg>
